<?xml version="1.0" encoding="UTF-8" standalone="no"?><!DOCTYPE svg PUBLIC "-//W3C//DTD SVG 1.1//EN" "http://www.w3.org/Graphics/SVG/1.1/DTD/svg11.dtd"><svg width="100%" height="100%" viewBox="0 0 888 888" version="1.1" xmlns="http://www.w3.org/2000/svg" xmlns:xlink="http://www.w3.org/1999/xlink" xml:space="preserve" xmlns:serif="http://www.serif.com/" style="fill-rule:evenodd;clip-rule:evenodd;stroke-linejoin:round;stroke-miterlimit:1.41421;"><path d="M479.52,581.972c0.017,-0.192 0.034,-0.385 0.051,-0.577l131.369,131.369l-169.705,169.705l-169.706,-169.705l130.698,-130.698l0.045,0.516l0.01,0.119l0.035,0.413l0.014,0.169l0.032,0.394l0.014,0.166l0.044,0.552c12.595,3.363 25.522,5.045 38.448,5.045l0.303,0c12.826,-0.026 25.649,-1.708 38.146,-5.045l0.037,-0.461l0.01,-0.133l0.029,-0.351l0.01,-0.126l0.038,-0.45l0.01,-0.116l0.029,-0.334l0.016,-0.186l0.023,-0.266Zm-181.941,-182.57l-0.068,0.237l-0.012,0.044l-0.002,0.006l-0.011,0.039l-0.058,0.205l-0.009,0.033l-0.003,0.01l-0.02,0.072l-0.05,0.179l-0.007,0.024l-0.003,0.011l-0.029,0.102l-0.043,0.157l-0.005,0.017l-0.003,0.011l-0.035,0.127l-0.039,0.139l-0.003,0.012l-0.003,0.01l-0.041,0.151l-0.034,0.122l-0.002,0.007l-0.002,0.007l-0.049,0.183l-0.027,0.098l-0.001,0.003l-0.001,0.004l-0.078,0.288l0.389,0.267l0.12,0.083l0.273,0.189l0.134,0.093l0.277,0.192l0.114,0.08l0.386,0.269l0.046,0.032l0.341,0.238l0.126,0.089l0.265,0.187l0.135,0.095l0.277,0.195l0.112,0.079l0.38,0.27l0.082,0.058l0.301,0.214l0.137,0.098l0.252,0.18l0.143,0.102l0.267,0.192l0.118,0.084l0.369,0.266l0.123,0.089l0.256,0.185l0.158,0.114l0.225,0.164l0.162,0.118l0.235,0.171l0.146,0.106l0.35,0.257l0.173,0.127l0.2,0.146l0.191,0.141l0.179,0.133l0.2,0.147l0.164,0.122l0.198,0.146l0.246,0.183l0.088,0.066l0.238,0.178l0.124,0.092l0.243,0.182l0.108,0.08l0.261,0.197l0.024,0.017c0.315,0.238 0.63,0.476 0.945,0.714l0.024,0.019l0.318,0.241l15.047,15.048c-0.093,0.691 -0.18,1.382 -0.261,2.074l-0.001,0.006l0,0.002l-0.01,0.086l-0.018,0.155l-0.002,0.017l-0.001,0.011l-0.012,0.104l-0.015,0.128l-0.002,0.017l-0.002,0.017l-0.014,0.124l-0.011,0.106l-0.002,0.013l-0.002,0.021l-0.016,0.147l-0.009,0.085l-0.001,0.008l-0.002,0.017c-0.055,0.511 -0.107,1.023 -0.156,1.535l-0.001,0.011l0,0.003l-0.006,0.062l-0.016,0.164l-0.002,0.032l-0.002,0.013l-0.007,0.078l-0.012,0.134l-0.003,0.035l-0.002,0.024l-0.009,0.094l-0.01,0.111l-0.003,0.032l-0.003,0.032l-0.009,0.112l-0.008,0.092l-0.002,0.025l-0.004,0.038l-0.011,0.132l-0.006,0.074l-0.002,0.017l-0.003,0.04l-0.013,0.156l-0.005,0.058l0,0.007l-0.003,0.029c-0.033,0.41 -0.064,0.821 -0.094,1.232l-0.003,0.043l0,0.012l-0.004,0.056l-0.01,0.142l-0.004,0.051l-0.001,0.024l-0.005,0.07l-0.008,0.118l-0.003,0.05l-0.003,0.034l-0.005,0.085l-0.007,0.099l-0.002,0.043l-0.003,0.044l-0.007,0.102l-0.005,0.081l-0.002,0.034l-0.003,0.053l-0.007,0.119l-0.004,0.066l-0.002,0.023l-0.003,0.058l-0.008,0.141l-0.003,0.05l-0.001,0.012l-0.003,0.055l-0.01,0.171l-0.002,0.034l0,0.001l0,0.013c-0.014,0.242 -0.026,0.484 -0.038,0.727l-0.002,0.044l-0.001,0.006l-0.002,0.037l-0.007,0.153l-0.003,0.065l-0.001,0.019l-0.002,0.051l-0.006,0.126l-0.003,0.066l-0.001,0.03l-0.003,0.066l-0.004,0.106l-0.003,0.059l-0.002,0.043l-0.003,0.079l-0.004,0.09l-0.002,0.05l-0.002,0.053l-0.004,0.095l-0.002,0.074l-0.002,0.039l-0.002,0.064l-0.004,0.111l-0.002,0.058l-0.001,0.028l-0.003,0.072l-0.004,0.13l-0.002,0.044l0,0.016l-0.003,0.074l-0.005,0.154l-0.001,0.029l0,0.004l-0.001,0.048c-0.007,0.221 -0.013,0.442 -0.019,0.663l-0.002,0.074l0,0.01l-0.001,0.035l-0.003,0.136l-0.002,0.08l0,0.023l-0.001,0.049l-0.003,0.116l-0.001,0.073l-0.001,0.036l-0.001,0.063l-0.002,0.098l-0.001,0.065l-0.001,0.048l-0.001,0.077l-0.002,0.083l-0.001,0.053l-0.001,0.06l-0.001,0.092l-0.001,0.068l-0.001,0.042l0,0.071l-0.002,0.106l0,0.055l-0.001,0.03l-0.001,0.08l-0.001,0.123l0,0.04l0,0.018l-0.001,0.086l-0.001,0.144l-0.001,0.027l0,0.005l0,0.067l-0.001,0.189l-0.001,0.253l0,0.014l0,0l0,0.021l0,0.153l0,0.087l0,0.013l-0.001,0.035l0.001,0.128l0,0.086l0,0.026l0,0.048l0,0.11l0,0.077l0.001,0.039l0,0.062l0,0.095l0.001,0.066l0,0.051l0.001,0.076l0,0.08l0.001,0.054l0,0.063l0.001,0.091l0.001,0.066l0,0.042l0.001,0.074l0.001,0.106l0.001,0.052l0,0.029l0.001,0.084l0.002,0.122l0.001,0.039l0,0.017l0.001,0.089l0.003,0.143l0,0.025l0,0.004l0.001,0.067l0.004,0.192l0.004,0.225l0.001,0.039l0.001,0.024l0.003,0.151l0.002,0.087l0,0.014l0.001,0.036l0.003,0.127l0.003,0.084l0,0.027l0.002,0.05l0.003,0.11l0.002,0.075l0.001,0.039l0.002,0.064l0.002,0.094l0.002,0.064l0.002,0.051l0.002,0.078l0.003,0.08l0.001,0.053l0.003,0.062l0.003,0.093l0.002,0.066l0.001,0.04l0.003,0.073l0.004,0.109l0.002,0.052l0.001,0.027l0.003,0.081l0.004,0.128l0.002,0.038l0,0.015l0.004,0.081l0.006,0.154l0.001,0.026l0.001,0.035l0.01,0.226l0.011,0.238l0.002,0.05l0.007,0.158l0.004,0.077l0.001,0.014l0.001,0.039l0.007,0.132l0.004,0.077l0.001,0.025l0.003,0.053l0.006,0.114l0.003,0.069l0.002,0.037l0.004,0.068l0.005,0.097l0.003,0.059l0.003,0.048l0.004,0.083l0.005,0.083l0.003,0.047l0.003,0.059l0.006,0.099l0.004,0.068l0.002,0.035l0.004,0.067l0.007,0.118l0.003,0.054l0.001,0.023l0.005,0.071l0.008,0.139l0.003,0.04l0.001,0.011l0.004,0.062c0.019,0.308 0.04,0.616 0.062,0.924l0.004,0.058l0.001,0.011l0.003,0.044l0.011,0.143l0.004,0.063l0.002,0.022l0.004,0.059l0.01,0.122l0.004,0.058l0.002,0.033l0.006,0.074l0.008,0.104l0.004,0.05l0.004,0.043l0.007,0.091l0.007,0.087l0.003,0.04l0.004,0.051l0.009,0.109l0.006,0.072l0.002,0.029l0.005,0.056l0.011,0.13l0.005,0.058l0.001,0.017l0.005,0.054l0.014,0.158l0.003,0.044l0.001,0.004l0.003,0.031c0.028,0.327 0.058,0.654 0.09,0.98l0.003,0.032l0,0.007l0.005,0.05l0.016,0.158l0.004,0.046l0.002,0.017l0.006,0.066l0.014,0.133l0.004,0.044l0.003,0.027l0.008,0.083l0.012,0.112l0.004,0.039l0.003,0.034l0.011,0.102l0.01,0.095l0.003,0.029l0.004,0.04l0.013,0.122l0.008,0.079l0.003,0.02l0.004,0.04l0.016,0.148l0.007,0.063l0.001,0.009l0.003,0.031c0.047,0.423 0.096,0.846 0.147,1.27l0.007,0.059l0.021,0.177l0.003,0.025l0.002,0.009l0.009,0.076l0.018,0.146l0.004,0.029l0.002,0.017l0.012,0.094l0.015,0.124l0.004,0.025l0.002,0.022l0.015,0.115l0.014,0.104l0.002,0.019l0.003,0.024l0.018,0.139l0.012,0.087l0.001,0.009l0.003,0.02c0.07,0.534 0.144,1.067 0.222,1.599l0.029,0.199l-7.251,7.251l-0.216,0.177l-0.124,0.102l-0.209,0.171l-0.124,0.102l-0.173,0.141l-0.181,0.147l-0.145,0.118l-0.194,0.158l-0.157,0.128l-0.171,0.138l-0.12,0.097l-0.188,0.152l-0.181,0.146l-0.173,0.139l-0.174,0.14l-0.304,0.243l-0.161,0.129l-0.192,0.153l-0.166,0.132l-0.227,0.181l-0.103,0.082l-0.103,0.081l-0.233,0.185l-0.156,0.123l-0.216,0.171l-0.139,0.109l-0.324,0.255l-0.139,0.109l-0.225,0.176l-0.141,0.11l-0.331,0.258l-0.107,0.084l-0.254,0.197l-0.137,0.106l-0.263,0.203l-0.097,0.075l-0.34,0.262l-0.126,0.098l-0.252,0.193l-0.118,0.09l-0.344,0.263l-0.103,0.079l-0.267,0.203l-0.122,0.093l-0.327,0.248l-0.03,0.022l-0.033,0.025l-0.327,0.248l-0.118,0.088l-0.279,0.211l-0.092,0.068l-0.355,0.267l-0.103,0.076l-0.277,0.207l-0.108,0.081l-0.36,0.268l-0.063,0.046l-0.309,0.229l-0.111,0.083l-0.314,0.231l-0.058,0.043l-0.364,0.268l-0.104,0.075l-0.289,0.212l-0.094,0.069l-0.366,0.266l-0.079,0.058l-0.3,0.218l-0.106,0.077l-0.369,0.266l-0.003,0.002l-0.005,0.004l-0.368,0.265l-0.104,0.075l-0.305,0.219l-0.077,0.055l-0.37,0.264l-0.091,0.065l-0.298,0.212l-0.099,0.071l-0.373,0.264l-0.051,0.036l-0.329,0.232l-0.106,0.074l-0.33,0.233l-0.05,0.035l-0.375,0.262l-0.099,0.07l-0.301,0.21l-0.091,0.063l-0.375,0.26l-0.075,0.053l-0.312,0.215l-0.104,0.072l-0.38,0.261c0.024,0.089 0.048,0.178 0.072,0.267l0.008,0.028l0.014,0.052l0.028,0.104l0.025,0.089l0.013,0.05l0.01,0.035l0.014,0.051l0.048,0.173l0.009,0.036l0.002,0.007c0.024,0.088 0.049,0.176 0.073,0.264l0.007,0.023l0.015,0.055l0.032,0.116l0.021,0.074l0.014,0.049l0.012,0.043l0.016,0.059l0.038,0.134l0.016,0.058l0.005,0.018c0.024,0.085 0.048,0.169 0.072,0.254l0.006,0.022l0.02,0.07l0.034,0.117l0.015,0.052l0.015,0.054l0.018,0.061l0.016,0.057l0.026,0.092l0.025,0.084l0.01,0.034l0.004,0.014l0.046,0.16l0.024,0.085l0.036,0.12l0.024,0.083l0.007,0.024l0.019,0.066l0.028,0.095l0.011,0.038l0.013,0.044l0.034,0.115l0.019,0.065l-128.249,128.249l-169.706,-169.705l169.706,-169.706l127.873,127.873Zm286.742,0.569l128.443,-128.442l169.705,169.706l-169.705,169.705l-128.815,-128.814c0.072,-0.245 0.142,-0.49 0.213,-0.735l0.005,-0.02l0.012,-0.041l0.048,-0.169l0.034,-0.119l0.013,-0.048l0.012,-0.041l0.024,-0.086l0.057,-0.203l0.014,-0.048l0.004,-0.015c0.032,-0.116 0.065,-0.232 0.097,-0.347l0.004,-0.017l0.016,-0.057l0.054,-0.195l0.021,-0.077l0.014,-0.049l0.017,-0.063l0.029,-0.106l0.038,-0.141l0.02,-0.069l0.009,-0.035c0.031,-0.115 0.062,-0.23 0.093,-0.345c0,0 -0.452,-0.311 -0.452,-0.311l-0.148,-0.103l-0.303,-0.21l-0.177,-0.122l-0.275,-0.192l-0.186,-0.129l-0.266,-0.186l-0.189,-0.132l-0.264,-0.186l-0.188,-0.132l-0.268,-0.189l-0.182,-0.128l-0.283,-0.2l-0.165,-0.117l-0.331,-0.236l-0.116,-0.082l-0.447,-0.32l-0.088,-0.063l-0.358,-0.257l-0.154,-0.11l-0.292,-0.211l-0.172,-0.124l-0.275,-0.2l-0.177,-0.128l-0.271,-0.197l-0.176,-0.129l-0.274,-0.2l-0.171,-0.125l-0.286,-0.21l-0.157,-0.115l-0.319,-0.235l-0.122,-0.09l-0.442,-0.327l-0.452,-0.336l-0.075,-0.057l-0.366,-0.273l-0.125,-0.094l-0.318,-0.238l-0.139,-0.105l-0.305,-0.23l-0.142,-0.107l-0.306,-0.232l-0.136,-0.103l-0.319,-0.243l-0.119,-0.09l-0.355,-0.271l-0.082,-0.063c-0.599,-0.458 -1.195,-0.919 -1.79,-1.382l-0.049,-0.039l-0.394,-0.307l-0.064,-0.05l-0.384,-0.301l-0.061,-0.048l-0.396,-0.312l-0.043,-0.034l-0.434,-0.344l-10.956,-10.955c0.082,-0.58 0.16,-1.16 0.234,-1.741l0.001,-0.008l0.001,-0.003l0.012,-0.096l0.017,-0.136l0.002,-0.015l0.001,-0.013l0.016,-0.122l0.012,-0.104l0.002,-0.011l0.002,-0.016l0.019,-0.156l0.009,-0.077l0,-0.001l0,-0.001c0.04,-0.333 0.079,-0.665 0.116,-0.998l0.001,-0.001l0,-0.001l0.007,-0.066l0.017,-0.156l0.003,-0.028l0.002,-0.014l0.01,-0.089l0.013,-0.12l0.003,-0.027l0.002,-0.026l0.013,-0.114l0.009,-0.092l0.002,-0.018l0.004,-0.032l0.015,-0.144l0.007,-0.068l0,-0.007l0.003,-0.023c0.032,-0.315 0.064,-0.631 0.094,-0.947l0.003,-0.032l0.001,-0.008l0.006,-0.063l0.013,-0.137l0.004,-0.042l0.002,-0.024l0.007,-0.084l0.01,-0.106l0.004,-0.037l0.003,-0.037l0.01,-0.107l0.007,-0.081l0.002,-0.026l0.004,-0.046l0.012,-0.134l0.005,-0.059l0.001,-0.011l0.004,-0.043c0.026,-0.302 0.051,-0.604 0.074,-0.907l0.004,-0.053l0.002,-0.016l0.004,-0.06l0.01,-0.122l0.004,-0.053l0.002,-0.032l0.006,-0.08l0.007,-0.096l0.004,-0.043l0.003,-0.047l0.007,-0.101l0.006,-0.073l0.002,-0.03l0.004,-0.059l0.009,-0.126l0.004,-0.052l0.001,-0.014l0.004,-0.061c0.015,-0.216 0.029,-0.431 0.043,-0.646l0.003,-0.046l0,-0.005l0.002,-0.038l0.009,-0.139l0.004,-0.069l0.001,-0.023l0.004,-0.056l0.006,-0.111l0.004,-0.061l0.002,-0.04l0.005,-0.076l0.005,-0.087l0.003,-0.048l0.003,-0.056l0.005,-0.097l0.004,-0.066l0.002,-0.033l0.003,-0.069l0.007,-0.119l0.002,-0.046l0.001,-0.017l0.004,-0.077c0.011,-0.2 0.02,-0.399 0.03,-0.599l0.003,-0.077l0.001,-0.01l0.002,-0.037l0.005,-0.125l0.004,-0.08l0.001,-0.027l0.003,-0.056l0.004,-0.101l0.003,-0.067l0.002,-0.045l0.003,-0.074l0.003,-0.081l0.002,-0.051l0.002,-0.063l0.004,-0.093l0.002,-0.061l0.002,-0.034l0.003,-0.079l0.004,-0.114l0.001,-0.041l0.001,-0.018l0.003,-0.09c0.007,-0.19 0.013,-0.38 0.019,-0.569l0.003,-0.095l0,-0.014l0.001,-0.036l0.003,-0.116l0.003,-0.085l0,-0.032l0.002,-0.055l0.002,-0.095l0.002,-0.069l0.001,-0.051l0.002,-0.073l0.002,-0.076l0.001,-0.052l0.002,-0.068l0.002,-0.092l0.001,-0.056l0.001,-0.035l0.002,-0.085l0.002,-0.112l0,-0.038l0.001,-0.017l0.002,-0.099c0.003,-0.185 0.006,-0.369 0.008,-0.553l0.002,-0.102l0,-0.017l0,-0.037l0.002,-0.111l0.001,-0.086l0,-0.036l0,-0.055l0.001,-0.091l0.001,-0.07l0,-0.053l0.001,-0.074l0,-0.073l0.001,-0.051l0,-0.071l0.001,-0.093l0,-0.054l0,-0.033l0,-0.089l0.001,-0.112l0,-0.035l0,-0.016l0,-0.104l0,-0.133l0,-0.186l0,-0.08l0,-0.001l0,-0.021l-0.001,-0.128l0,-0.101l0,-0.02l0,-0.039l-0.001,-0.108l0,-0.085l-0.001,-0.037l0,-0.058l-0.001,-0.089l0,-0.067l-0.001,-0.055l-0.001,-0.077l0,-0.07l-0.001,-0.049l-0.001,-0.073l-0.001,-0.096l0,-0.052l-0.001,-0.031l-0.001,-0.089l-0.001,-0.115l-0.001,-0.034l0,-0.013l-0.002,-0.102l-0.002,-0.139l-0.003,-0.181l-0.002,-0.081l0,-0.003l0,-0.023l-0.003,-0.13l-0.002,-0.096l0,-0.02l-0.001,-0.042l-0.003,-0.108l-0.001,-0.081l-0.001,-0.038l-0.002,-0.061l-0.002,-0.089l-0.001,-0.063l-0.002,-0.056l-0.002,-0.08l-0.002,-0.07l-0.001,-0.046l-0.002,-0.071l-0.003,-0.101l-0.002,-0.051l0,-0.028l-0.003,-0.086l-0.004,-0.122l-0.001,-0.034l0,-0.009l-0.003,-0.089l-0.005,-0.156l-0.007,-0.197l-0.002,-0.061l0,-0.003l-0.001,-0.027l-0.005,-0.135l-0.003,-0.086l-0.001,-0.021l-0.002,-0.046l-0.004,-0.111l-0.003,-0.074l-0.002,-0.037l-0.002,-0.066l-0.004,-0.09l-0.003,-0.058l-0.002,-0.053l-0.003,-0.086l-0.004,-0.071l-0.001,-0.041l-0.004,-0.068l-0.004,-0.108l-0.003,-0.052l-0.001,-0.023l-0.004,-0.079l-0.006,-0.134l-0.002,-0.033l0,-0.006l-0.003,-0.06l-0.009,-0.188l-0.011,-0.218l-0.002,-0.036l0,-0.002l-0.002,-0.032l-0.008,-0.144l-0.004,-0.073l-0.001,-0.019l-0.003,-0.051l-0.006,-0.116l-0.004,-0.065l-0.002,-0.035l-0.004,-0.072l-0.006,-0.094l-0.003,-0.05l-0.003,-0.05l-0.005,-0.094l-0.005,-0.073l-0.002,-0.034l-0.003,-0.062l-0.008,-0.118l-0.003,-0.054l-0.001,-0.018l-0.005,-0.065l-0.009,-0.151l-0.002,-0.034l0,-0.001l-0.001,-0.005l-0.016,-0.247l-0.017,-0.24l0,-0.01l-0.001,0l-0.002,-0.037l-0.011,-0.155l-0.004,-0.059l-0.001,-0.016l-0.005,-0.058l-0.009,-0.122l-0.004,-0.054l-0.002,-0.032l-0.006,-0.079l-0.007,-0.098l-0.003,-0.042l-0.004,-0.045l-0.008,-0.102l-0.006,-0.077l-0.002,-0.027l-0.004,-0.053l-0.01,-0.131l-0.005,-0.056l-0.001,-0.011l-0.003,-0.046c-0.025,-0.305 -0.051,-0.61 -0.078,-0.915l-0.004,-0.042l-0.001,-0.013l-0.005,-0.065l-0.012,-0.13l-0.004,-0.043l-0.002,-0.026l-0.009,-0.088l-0.009,-0.104l-0.003,-0.032l-0.004,-0.037l-0.01,-0.114l-0.008,-0.081l-0.002,-0.019l-0.004,-0.039l-0.014,-0.148l-0.006,-0.06l0,-0.004l-0.002,-0.017c-0.031,-0.321 -0.063,-0.641 -0.097,-0.961l-0.003,-0.023l-0.001,-0.008l-0.007,-0.074l-0.015,-0.14l-0.004,-0.029l-0.002,-0.019l-0.01,-0.099l-0.012,-0.11l-0.003,-0.022l-0.003,-0.026l-0.014,-0.129l-0.01,-0.085l-0.001,-0.01l-0.002,-0.022c-0.046,-0.409 -0.094,-0.817 -0.144,-1.225l-0.001,-0.004l0,-0.001l-0.01,-0.085l-0.019,-0.149l-0.002,-0.015l-0.001,-0.01l-0.014,-0.112l-0.015,-0.118l-0.001,-0.01l-0.002,-0.013l-0.019,-0.145l-0.012,-0.092l17.893,-17.892c0.474,-0.351 0.949,-0.701 1.426,-1.048l0.004,-0.003l0.445,-0.324l0.098,-0.071l0.353,-0.257l0.132,-0.095l0.323,-0.234l0.144,-0.103l0.319,-0.229l0.142,-0.102l0.341,-0.244l0.117,-0.083l0.458,-0.326l0.457,-0.324l0.134,-0.095l0.321,-0.226l0.17,-0.12l0.287,-0.201l0.182,-0.127l0.279,-0.195l0.183,-0.128l0.284,-0.198l0.176,-0.122l0.309,-0.214l0.15,-0.103l0.458,-0.316l-0.08,-0.295l-0.024,-0.09l-0.013,-0.048l-0.014,-0.052l-0.029,-0.105l-0.069,-0.252l-0.006,-0.023l-0.002,-0.006c-0.036,-0.131 -0.072,-0.261 -0.108,-0.392l-0.01,-0.034l-0.012,-0.043l-0.037,-0.133l-0.072,-0.256Zm-182.191,-100.153l-0.041,0.447l-130.56,-130.559l169.706,-169.706l169.705,169.706l-131.227,131.227l-0.05,-0.531l-0.011,-0.114l-0.039,-0.42l-0.015,-0.167l-0.033,-0.369l-0.018,-0.196l-0.03,-0.342l-0.019,-0.211l-0.028,-0.333l-0.019,-0.215l-0.028,-0.337l-0.017,-0.208l-0.03,-0.366l-0.015,-0.177l-0.043,-0.542c-12.497,-3.337 -25.32,-5.019 -38.146,-5.045l-0.303,0c-12.926,0 -25.853,1.682 -38.448,5.045l-0.04,0.499l-0.014,0.171l-0.027,0.328l-0.018,0.214l-0.023,0.282l-0.021,0.245l-0.021,0.247l-0.024,0.279l-0.019,0.207l-0.028,0.32l-0.014,0.157l-0.034,0.375l-0.008,0.089Z" style="fill:#ff5252;fill-opacity:0.25;"/><path d="M395.508,550.773c0.769,0.316 1.542,0.624 2.317,0.924c2.197,10.806 3.729,21.705 4.596,32.698c13.498,3.604 27.376,5.277 41.227,5.019l91.233,158.021l-207.846,120l-120,-207.847l188.473,-108.815Zm163.628,-94.47l188.299,-108.715l120,207.847l-207.847,120l-91.177,-157.924c7.207,-11.921 12.738,-24.844 16.386,-38.411c-9.087,-6.247 -17.76,-13.023 -26.02,-20.329c0.128,-0.821 0.248,-1.644 0.359,-2.468Zm-245.928,-92.816c-7.149,11.866 -12.639,24.721 -16.267,38.213c9.087,6.247 17.76,13.023 26.02,20.329c-0.245,1.57 -0.458,3.145 -0.639,4.722l-187.287,108.13l-120,-207.846l207.846,-120l90.327,156.452Zm124.652,-72.097l-90.272,-156.355l207.847,-120l120,207.846l-187.113,108.029c-1.456,-0.631 -2.926,-1.234 -4.409,-1.807c-2.196,-10.806 -3.728,-21.705 -4.595,-32.698c-13.573,-3.624 -27.53,-5.296 -41.458,-5.015Z" style="fill:#ff5252;fill-opacity:0.219667;"/><path d="M310.838,513.235c6.633,11.842 14.881,22.772 24.552,32.46c9.953,-4.746 20.159,-8.869 30.615,-12.369c1.063,0.856 2.139,1.693 3.23,2.511l0,217.398l-240,0l0,-240l181.603,0Zm442.397,240l-240,0l0,-217.95c0.841,-0.642 1.674,-1.295 2.498,-1.959c10.457,3.5 20.662,7.623 30.616,12.369c9.67,-9.688 17.918,-20.618 24.551,-32.46l182.335,0l0,240Zm-384,-408.272c-1.091,0.818 -2.167,1.655 -3.23,2.511c-10.456,-3.5 -20.662,-7.623 -30.615,-12.369c-10.124,10.141 -18.688,21.645 -25.473,34.13l-180.682,0l0,-240l240,0l0,215.728Zm384,24.272l-181.414,0c-6.785,-12.485 -15.349,-23.989 -25.472,-34.13c-9.954,4.746 -20.159,8.869 -30.616,12.369c-0.824,-0.664 -1.657,-1.317 -2.498,-1.959l0,-216.28l240,0l0,240Z" style="fill:#ff5252;fill-opacity:0.320714;"/><path d="M513.446,535.123l23.444,6.282c3.177,1.369 6.33,2.799 9.459,4.29c0.459,-0.46 0.915,-0.923 1.368,-1.389l176.252,47.227l-62.117,231.822l-231.822,-62.117l47.243,-176.312c0.682,-0.172 1.364,-0.349 2.045,-0.531c0.298,-3.788 0.676,-7.565 1.133,-11.331l5.997,-22.381c9.641,-3.984 18.717,-9.215 26.998,-15.56Zm-214.438,-57.458c-0.686,0.482 -1.375,0.96 -2.067,1.435c6.771,25.18 20.028,48.142 38.449,66.595c1.259,-0.6 2.522,-1.191 3.789,-1.771l-48.243,180.045l-231.822,-62.117l62.117,-231.822l177.777,47.635Zm244.896,-141.409l47.629,-177.755l231.822,62.116l-62.117,231.823l-180.02,-48.237c1.186,-0.844 2.379,-1.678 3.579,-2.503c-6.77,-25.18 -20.028,-48.142 -38.448,-66.595c-0.814,0.388 -1.629,0.771 -2.445,1.151Zm-211.009,1.409l-174.394,-46.729l62.116,-231.822l231.823,62.117l-46.712,174.331c-1.105,0.268 -2.207,0.549 -3.307,0.843c-0.54,6.847 -1.338,13.658 -2.394,20.432l-3.414,12.743c-10.687,4.267 -20.7,10.058 -29.729,17.193l-11.326,-3.035c-6.834,-2.603 -13.556,-5.481 -20.168,-8.633c-0.843,0.844 -1.674,1.697 -2.495,2.56Z" style="fill:#ff5252;fill-opacity:0.25;"/><path d="M486.656,550.597l188.779,108.991l-120,207.847l-207.847,-120l91.227,-158.009c13.61,0.187 27.24,-1.489 40.503,-5.031c0.867,-10.993 2.399,-21.892 4.595,-32.698c0.919,-0.355 1.834,-0.722 2.743,-1.1Zm-164.114,-94.751c0.128,0.977 0.267,1.952 0.419,2.925c-8.26,7.306 -16.933,14.082 -26.02,20.329c3.711,13.801 9.371,26.936 16.761,39.027l-90.821,157.308l-207.846,-120l120,-207.847l187.507,108.258Zm246.36,-91.738l90.686,-157.073l207.847,120l-120,207.846l-188.071,-108.583c-0.17,-1.426 -0.365,-2.849 -0.587,-4.269c8.26,-7.306 16.933,-14.082 26.02,-20.329c-3.564,-13.257 -8.927,-25.899 -15.895,-37.592Zm-175.067,-33.378l-186.8,-107.849l120,-207.846l207.846,120l-90.282,156.372c-14.166,-0.355 -28.371,1.311 -42.178,4.998c-0.867,10.993 -2.399,21.892 -4.596,32.698c-1.34,0.518 -2.671,1.061 -3.99,1.627Z" style="fill:#ff5252;fill-opacity:0.306569;"/><path d="M368.483,535.268c8.464,6.459 17.755,11.756 27.628,15.751l4.473,16.694c0.784,5.536 1.396,11.097 1.837,16.682c0.941,0.252 1.883,0.493 2.828,0.726l47.191,176.117l-231.823,62.117l-62.116,-231.822l175.672,-47.071c0.403,0.413 0.809,0.824 1.217,1.233c2.74,-1.306 5.498,-2.565 8.276,-3.777l24.817,-6.65Zm214.449,-57.461l178.306,-47.777l62.117,231.822l-231.822,62.117l-48.14,-179.661c0.988,0.456 1.973,0.918 2.956,1.387c18.42,-18.453 31.678,-41.415 38.448,-66.595c-0.623,-0.428 -1.245,-0.86 -1.865,-1.293Zm-244.263,-141.165c-1.096,-0.505 -2.189,-1.017 -3.279,-1.537c-18.421,18.453 -31.678,41.415 -38.449,66.595c1.268,0.871 2.528,1.753 3.78,2.645l-179.49,48.095l-62.117,-231.823l231.822,-62.116l47.733,178.141Zm138.124,-40.888l-46.763,-174.523l231.822,-62.117l62.117,231.822l-174.977,46.885c-0.869,-0.916 -1.75,-1.821 -2.643,-2.716c-7.191,3.428 -14.513,6.532 -21.966,9.31l-9.344,2.504c-8.846,-7.019 -18.642,-12.745 -29.094,-17.009l-5.089,-18.994c-0.643,-4.819 -1.155,-9.656 -1.538,-14.511c-0.84,-0.225 -1.682,-0.441 -2.525,-0.651Z" style="fill:#ff5252;fill-opacity:0.25;"/><path d="M546.855,335.615l206.38,-206.38l0,72.594l70.12,18.788l-18.789,70.121l62.869,36.297l-36.297,62.868l51.331,51.332l-51.331,51.331l36.297,62.869l-62.869,36.297l18.789,70.12l-70.12,18.789l0,72.594l-72.594,0l-18.789,70.12l-70.12,-18.789l-36.297,62.869l-62.869,-36.297l-51.331,51.331l-51.332,-51.331l-62.868,36.297l-36.297,-62.869l-70.121,18.789l-18.788,-70.12l-72.594,0l208.768,-208.769c9.125,-4.232 18.459,-7.945 28.002,-11.14c9.595,7.73 20.329,13.927 31.82,18.371c2.197,10.806 3.729,21.705 4.596,32.698c25.191,6.727 51.706,6.727 76.897,0c0.867,-10.993 2.399,-21.892 4.595,-32.698c11.492,-4.444 22.226,-10.641 31.82,-18.371c10.457,3.5 20.662,7.623 30.616,12.369c18.42,-18.453 31.678,-41.415 38.448,-66.595c-9.087,-6.247 -17.76,-13.023 -26.02,-20.329c1.897,-12.174 1.897,-24.568 0,-36.742c8.26,-7.306 16.933,-14.082 26.02,-20.329c-6.708,-24.948 -19.785,-47.72 -37.942,-66.085Z" style="fill:#fdd835;fill-opacity:0.446984;"/><path d="M511.372,177.282c-46.187,-12.376 -94.818,-12.376 -141.005,0l35.351,31.378c23.301,-3.535 47.001,-3.535 70.302,0l35.352,-31.378Zm-141.005,0c-46.187,12.376 -88.302,36.691 -122.114,70.502l46.305,9.498c18.411,-14.711 38.937,-26.561 60.883,-35.151l14.926,-44.849Zm-122.114,70.502c-33.811,33.811 -58.126,75.927 -70.502,122.114l44.85,-14.927c8.589,-21.946 20.44,-42.471 35.151,-60.883l-9.499,-46.304Zm-70.502,122.114c-12.376,46.187 -12.376,94.817 0,141.004l31.378,-35.351c-3.534,-23.301 -3.534,-47.001 0,-70.302l-31.378,-35.351Zm0,141.004c12.376,46.187 36.691,88.303 70.502,122.114l9.499,-46.304c-14.711,-18.412 -26.562,-38.937 -35.151,-60.883l-44.85,-14.927Zm70.502,122.114c33.812,33.811 75.927,58.126 122.114,70.502l-14.926,-44.849c-21.946,-8.59 -42.472,-20.44 -60.883,-35.151l-46.305,9.498Zm122.114,70.502c46.187,12.376 94.818,12.376 141.005,0l-35.352,-31.378c-23.301,3.535 -47.001,3.535 -70.302,0l-35.351,31.378Zm141.005,0c46.186,-12.376 88.302,-36.691 122.113,-70.502l-46.304,-9.498c-18.412,14.711 -38.937,26.561 -60.883,35.151l-14.926,44.849Zm122.113,-70.502c33.811,-33.811 58.127,-75.927 70.502,-122.114l-44.849,14.927c-8.59,21.946 -20.44,42.471 -35.151,60.883l9.498,46.304Zm70.502,-122.114c12.376,-46.187 12.376,-94.817 0,-141.004l-31.377,35.351c3.534,23.301 3.534,47.001 0,70.302l31.377,35.351Zm0,-141.004c-12.375,-46.187 -36.691,-88.303 -70.502,-122.114l-9.498,46.304c14.711,18.412 26.561,38.937 35.151,60.883l44.849,14.927Zm-70.502,-122.114c-33.811,-33.811 -75.927,-58.126 -122.113,-70.502l14.926,44.849c21.946,8.59 42.471,20.44 60.883,35.151l46.304,-9.498Z" style="fill:#fff;fill-opacity:0.424345;"/></svg>
