<?xml version="1.0" standalone="no"?>
<!DOCTYPE svg PUBLIC "-//W3C//DTD SVG 20010904//EN"
 "http://www.w3.org/TR/2001/REC-SVG-20010904/DTD/svg10.dtd">
<svg version="1.0" xmlns="http://www.w3.org/2000/svg"
 width="700.000000pt" height="700.000000pt" viewBox="0 0 700.000000 700.000000"
 preserveAspectRatio="xMidYMid meet">
<metadata>
Created by potrace 1.11, written by Peter Selinger 2001-2013
</metadata>
<g transform="translate(0.000000,700.000000) scale(0.100000,-0.100000)"
fill="#000000" stroke="none">
<path d="M3276 6800 l-199 -199 -61 32 c-34 17 -63 35 -66 38 -3 3 -30 19 -60
35 -30 16 -57 31 -60 34 -3 3 -18 12 -35 20 -16 8 -32 17 -35 20 -13 14 -157
91 -173 93 -13 1 -28 -17 -55 -68 -20 -38 -43 -74 -49 -78 -7 -4 -13 -13 -13
-20 -1 -7 -40 -79 -88 -162 -70 -119 -92 -150 -107 -148 -24 3 -60 11 -60 13
0 1 -7 3 -15 5 -8 1 -35 8 -60 15 -25 7 -52 14 -60 16 -8 2 -40 10 -70 19 -53
15 -70 20 -107 29 -10 3 -33 9 -50 15 -18 5 -33 7 -33 4 0 -3 -6 -1 -12 4 -7
5 -27 10 -44 12 -29 2 -32 -1 -39 -36 -5 -21 -7 -44 -6 -50 1 -7 -3 -13 -10
-13 -6 0 -9 -7 -6 -15 4 -8 2 -17 -3 -20 -4 -3 -12 -24 -16 -48 -10 -53 -7
-43 -26 -107 -10 -30 -19 -66 -22 -80 -3 -14 -15 -60 -27 -102 l-21 -78 -284
0 -284 0 0 -285 c0 -182 -4 -285 -10 -286 -19 -3 -25 -4 -35 -10 -12 -7 -87
-23 -97 -21 -5 1 -8 -2 -8 -6 0 -4 -13 -9 -29 -10 -16 -1 -47 -9 -69 -16 -22
-8 -43 -12 -46 -9 -3 4 -6 1 -6 -6 0 -7 -4 -10 -9 -7 -5 3 -29 0 -54 -8 -25
-8 -48 -11 -51 -8 -4 3 -6 1 -6 -5 0 -5 -6 -10 -12 -11 -7 0 -20 -3 -28 -5 -8
-2 -32 -7 -53 -12 -35 -7 -37 -9 -35 -41 1 -19 6 -34 12 -34 5 0 7 -2 4 -6 -5
-4 1 -36 18 -99 3 -11 6 -26 6 -32 1 -7 5 -13 10 -13 4 0 7 -3 6 -7 -1 -5 2
-26 7 -48 4 -22 7 -46 6 -52 -1 -7 2 -13 6 -13 5 0 10 -11 11 -26 1 -14 6 -34
12 -44 6 -10 11 -30 12 -44 1 -15 5 -26 9 -26 3 0 6 -6 6 -13 0 -7 3 -25 7
-40 5 -23 2 -30 -26 -46 -18 -11 -37 -24 -43 -28 -5 -5 -25 -15 -42 -22 -18
-7 -33 -17 -33 -22 0 -5 -6 -9 -12 -9 -12 0 -151 -79 -174 -98 -6 -5 -20 -13
-32 -16 -12 -4 -28 -13 -35 -19 -7 -7 -29 -21 -50 -31 -20 -11 -37 -23 -37
-28 0 -9 91 -170 101 -178 3 -3 12 -20 20 -37 8 -18 17 -33 21 -33 5 0 8 -5 8
-11 0 -6 29 -59 64 -118 38 -65 61 -114 56 -121 -4 -7 -94 -99 -199 -205 -105
-105 -191 -194 -191 -197 0 -3 90 -96 199 -205 l200 -200 -40 -68 c-21 -37
-39 -71 -39 -76 0 -5 -3 -9 -8 -9 -4 0 -17 -21 -30 -47 -12 -27 -40 -77 -62
-112 -22 -34 -40 -66 -40 -70 0 -5 -9 -18 -20 -31 -11 -12 -17 -27 -14 -31 3
-5 1 -9 -5 -9 -5 0 -13 -9 -16 -20 -5 -16 4 -31 40 -66 26 -24 50 -42 55 -39
4 3 13 -2 20 -10 7 -8 19 -15 26 -15 8 0 14 -4 14 -9 0 -5 13 -14 30 -20 16
-5 30 -14 30 -18 0 -5 15 -14 34 -21 18 -7 43 -21 56 -32 12 -11 26 -17 30
-15 5 3 10 1 12 -3 3 -9 36 -29 96 -57 29 -14 33 -19 28 -48 -2 -18 -5 -32 -6
-32 -2 0 -4 -9 -5 -20 -2 -11 -14 -59 -29 -107 -14 -48 -27 -100 -30 -115 -2
-16 -5 -30 -6 -33 -1 -3 -2 -8 -1 -12 0 -5 -4 -8 -11 -8 -6 0 -9 -3 -6 -6 3
-3 -1 -29 -9 -57 -8 -29 -17 -68 -19 -88 -5 -31 -3 -37 17 -42 13 -4 20 -9 16
-13 -9 -10 13 -35 24 -28 5 3 9 0 9 -7 0 -7 3 -10 6 -7 3 4 34 -2 69 -12 35
-10 66 -16 69 -12 3 3 6 0 6 -6 0 -7 3 -11 8 -10 4 1 25 -3 47 -7 22 -5 46 -8
53 -7 6 2 12 -3 12 -9 0 -7 3 -10 6 -6 3 3 23 -1 44 -8 21 -7 51 -16 67 -19
15 -3 42 -9 58 -14 l30 -8 5 -270 c4 -229 7 -269 20 -269 8 0 17 -11 20 -25
l5 -25 268 0 267 0 10 -31 c6 -17 13 -41 15 -54 2 -13 11 -44 20 -69 8 -25 17
-57 19 -71 3 -14 5 -26 7 -27 1 -2 2 -6 3 -10 4 -17 17 -69 21 -88 25 -108 48
-161 66 -150 4 3 9 -9 13 -26 4 -20 10 -28 18 -23 7 4 23 9 36 10 14 2 32 6
41 10 9 4 23 8 31 9 8 1 22 4 30 8 15 6 96 29 115 32 6 1 12 3 15 4 3 2 12 4
20 6 8 1 35 8 60 16 25 7 51 12 58 10 6 -1 12 3 12 9 0 7 6 10 13 7 6 -2 21
-1 32 3 46 16 75 20 75 10 0 -6 32 -65 70 -130 39 -65 70 -123 70 -129 0 -6 3
-11 8 -11 4 0 13 -15 21 -33 8 -17 17 -34 20 -37 4 -3 17 -26 31 -51 16 -32
28 -45 39 -41 8 3 12 1 9 -4 -4 -5 0 -18 8 -28 14 -19 15 -19 56 4 24 12 57
30 73 38 17 9 36 22 43 29 7 7 19 13 26 13 8 0 19 7 26 15 7 8 16 13 20 10 5
-3 10 -1 12 3 3 7 126 80 153 91 6 2 12 7 15 10 3 3 24 17 48 29 l43 24 195
-196 c107 -108 201 -196 209 -196 9 0 103 88 210 196 l195 196 59 -36 c32 -20
64 -36 70 -36 6 0 11 -4 11 -10 0 -5 5 -10 10 -10 6 0 50 -24 98 -52 48 -29
101 -60 117 -68 17 -8 32 -17 35 -20 10 -10 88 -50 98 -50 5 0 15 12 21 27 12
31 29 60 49 81 6 7 12 20 12 27 0 7 7 21 16 29 8 9 13 16 9 16 -4 0 3 12 14
26 11 15 18 30 15 35 -3 5 -1 9 5 9 5 0 22 25 37 55 16 30 32 55 36 55 4 0 8
6 8 14 0 7 9 25 20 38 10 14 17 28 14 31 -3 2 7 14 21 25 24 19 28 19 78 6 28
-8 60 -17 69 -19 9 -2 41 -10 70 -19 96 -27 143 -39 158 -41 8 -1 25 -7 38
-13 12 -7 22 -11 22 -8 0 3 19 -1 43 -7 60 -18 92 -16 91 5 -1 10 2 18 7 18 5
0 8 3 7 8 -1 4 3 25 7 47 11 49 10 47 17 65 9 23 38 131 44 160 3 14 9 40 15
58 6 18 12 39 13 45 2 7 5 19 8 27 3 8 10 33 14 55 l9 40 288 0 287 0 0 286 0
287 28 11 c15 6 38 13 52 15 14 3 55 14 93 25 37 11 67 17 67 14 0 -3 7 0 15
7 8 7 15 10 15 7 0 -3 20 1 45 9 25 7 45 10 45 7 0 -3 6 -1 13 4 10 9 105 36
129 38 3 0 10 3 14 8 4 4 15 7 24 7 9 0 17 7 17 15 0 8 -5 15 -10 15 -6 0 -8
2 -5 5 3 3 -3 36 -14 73 -11 37 -21 75 -23 85 -2 10 -7 27 -10 37 -8 25 -16
63 -17 78 -1 6 -4 12 -8 12 -3 0 -6 8 -7 18 -1 9 -14 62 -28 117 -17 65 -22
101 -15 103 6 2 16 9 23 15 6 7 30 21 52 32 22 11 42 23 45 26 3 3 21 14 41
23 20 9 45 25 56 34 10 9 25 18 33 20 8 2 23 11 33 19 9 9 17 13 17 8 0 -4 7
-1 16 6 9 7 24 18 34 24 98 55 130 77 130 90 0 8 -3 15 -7 15 -5 0 -17 19 -28
43 -11 23 -26 48 -32 55 -7 7 -13 20 -13 28 0 8 -4 14 -9 14 -5 0 -11 8 -14
18 -4 9 -18 37 -33 62 -28 48 -134 230 -141 242 -2 4 84 95 192 203 107 108
195 203 195 210 0 7 -88 101 -196 208 l-196 196 29 53 c15 29 30 55 33 58 10
10 41 65 47 83 3 9 9 17 13 17 4 0 11 11 14 24 3 14 12 31 19 38 13 15 15 18
72 123 21 39 42 72 47 73 18 8 7 39 -18 50 -14 7 -22 17 -19 22 3 6 1 10 -4
10 -10 0 -69 33 -141 79 -14 8 -28 14 -32 13 -5 -1 -8 2 -8 7 0 5 -12 14 -27
20 -16 6 -35 15 -43 21 -41 28 -172 100 -180 100 -10 0 -6 31 10 75 4 11 5 26
3 33 -3 6 0 12 6 12 6 0 10 3 9 8 -1 4 3 25 7 47 5 22 8 46 7 53 -2 6 2 12 8
12 6 0 8 5 5 10 -3 6 -2 10 3 10 5 0 9 12 10 28 0 15 7 46 16 69 8 22 12 44 9
47 -4 3 -1 6 4 6 6 0 10 8 8 18 -1 9 1 22 5 27 5 6 10 24 13 40 3 17 6 37 8
45 4 13 -1 16 -36 19 -9 0 -15 8 -13 17 2 13 -15 22 -74 39 -43 12 -78 21 -78
19 0 -2 -11 1 -25 6 -14 5 -36 12 -48 14 -12 3 -49 12 -82 21 -33 9 -64 18
-70 19 -5 2 -17 6 -25 9 -8 3 -33 9 -55 14 l-40 9 -3 272 -2 272 -24 0 c-17 0
-23 5 -22 18 3 16 -17 17 -267 22 l-271 5 -23 85 c-12 47 -25 94 -27 105 -3
11 -10 36 -15 55 -5 19 -19 71 -31 115 -11 44 -22 88 -23 98 -1 9 -5 17 -10
17 -4 0 -6 4 -3 9 7 11 -18 33 -28 24 -4 -4 -9 3 -13 15 -7 27 -23 28 -112 3
-38 -11 -72 -17 -75 -13 -3 3 -6 0 -6 -6 0 -7 -3 -11 -7 -10 -5 1 -33 -4 -63
-12 -30 -8 -57 -15 -60 -15 -3 -1 -18 -5 -35 -9 -16 -4 -42 -12 -56 -18 -15
-5 -37 -11 -50 -14 -13 -2 -39 -7 -57 -10 -29 -6 -33 -4 -43 25 -6 17 -14 31
-18 31 -4 0 -13 16 -20 35 -7 19 -17 35 -22 35 -6 0 -7 5 -4 10 3 6 2 10 -4
10 -5 0 -13 10 -17 22 -4 13 -17 39 -29 58 -12 19 -42 69 -65 110 -24 41 -59
90 -77 108 -37 37 -36 37 -118 -11 -11 -7 -47 -27 -80 -46 -33 -19 -63 -39
-67 -45 -4 -6 -8 -7 -8 -3 0 5 -12 0 -28 -10 -43 -29 -64 -41 -112 -65 -25
-13 -48 -28 -53 -35 -4 -6 -21 -14 -37 -18 -29 -6 -40 3 -226 189 -108 108
-199 196 -202 196 -4 0 -97 -90 -206 -200z m429 -2164 c47 -6 75 -17 76 -30 0
-6 2 -22 4 -36 3 -14 10 -60 16 -102 10 -66 14 -78 30 -78 12 0 19 -7 19 -19
0 -18 33 -38 53 -33 4 1 7 -2 7 -7 0 -5 10 -11 23 -15 12 -3 59 -30 104 -60
58 -39 84 -51 92 -43 6 6 11 7 11 2 0 -6 3 -6 8 0 4 6 32 18 62 29 30 10 74
27 98 38 l43 20 19 -23 c23 -28 25 -30 65 -84 50 -67 106 -176 145 -286 l27
-76 -50 -34 c-27 -19 -63 -45 -78 -59 -15 -14 -40 -35 -54 -47 -19 -17 -25
-28 -20 -44 8 -25 9 -222 1 -247 -4 -11 7 -31 32 -57 44 -47 109 -105 117
-105 15 0 38 -33 38 -54 0 -33 -64 -175 -119 -267 -46 -76 -58 -92 -132 -175
l-36 -42 -76 35 c-41 19 -82 36 -90 38 -8 2 -27 8 -41 13 -18 7 -32 7 -46 -1
-31 -18 -87 -55 -98 -64 -17 -14 -120 -63 -132 -63 -6 0 -14 -21 -18 -47 -4
-27 -10 -59 -12 -73 -7 -39 -11 -82 -12 -118 -1 -17 -4 -31 -8 -30 -5 1 -33
-4 -63 -10 -133 -28 -356 -30 -455 -4 -29 8 -31 12 -43 88 -7 43 -14 91 -15
105 -3 27 -28 59 -46 59 -6 0 -11 6 -11 13 -1 6 -34 28 -75 47 -41 19 -75 38
-75 42 0 4 -11 10 -25 14 -14 3 -25 9 -25 13 0 4 -13 14 -29 24 -24 14 -33 15
-62 4 -19 -7 -37 -16 -41 -22 -4 -5 -8 -7 -8 -3 0 8 -120 -39 -134 -52 -10
-10 -110 112 -148 181 -14 25 -30 54 -36 65 -6 10 -18 36 -27 57 -8 20 -22 53
-31 73 -33 74 -30 89 23 125 26 18 56 42 66 52 9 11 17 16 17 11 0 -5 11 3 24
18 12 15 26 25 30 21 8 -8 8 -10 8 175 1 84 -3 157 -8 161 -5 4 -38 32 -74 61
-36 29 -68 58 -72 64 -4 6 -8 7 -8 3 0 -5 -7 -1 -16 7 -16 17 -12 40 24 126 8
19 14 36 13 38 -5 10 116 214 131 220 5 2 8 8 8 13 0 15 101 117 113 115 7 -2
38 -15 70 -30 32 -14 63 -26 70 -26 7 0 18 -5 25 -12 7 -7 12 -8 12 -4 0 5 11
1 23 -7 22 -15 27 -13 88 30 35 24 81 52 102 61 20 9 37 20 37 24 0 5 8 8 18
8 29 0 41 14 47 55 3 22 10 63 15 90 5 28 11 67 12 88 2 35 8 41 36 38 6 -1
12 2 12 7 0 5 6 9 13 10 6 1 41 4 77 8 36 3 67 8 70 11 5 5 215 -4 275 -11z"/>
</g>
</svg>
